<svg xmlns="http://www.w3.org/2000/svg" width="24" height="24" viewBox="0 0 24 24" role="img" aria-labelledby="whatsappTitle">
  <title id="whatsappTitle">WhatsApp</title>
  <circle cx="12" cy="12" r="12" fill="#25D366" />
  <path
    fill="#FFFFFF"
    d="M12.03 4a7.98 7.98 0 0 0-6.94 11.92L4 20l4.2-1.09a8 8 0 0 0 3.82.99h.01a8 8 0 0 0 0-16Zm0 14.31h-.01a6.33 6.33 0 0 1-3.23-.89l-.23-.13-2.3.6.62-2.25-.15-.24a6.28 6.28 0 0 1-.97-3.37 6.31 6.31 0 0 1 10.77-4.47 6.26 6.26 0 0 1 1.85 4.48 6.3 6.3 0 0 1-6.35 6.27Zm3.45-4.7c-.19-.1-1.12-.55-1.29-.61-.18-.06-.31-.09-.43.1-.13.19-.49.61-.6.73-.11.13-.22.15-.41.05-.19-.1-.8-.3-1.52-.94-.56-.5-.94-1.12-1.04-1.31-.11-.19-.01-.29.08-.38.08-.08.19-.22.28-.32.1-.11.13-.19.19-.31.06-.13.03-.24-.02-.33-.04-.09-.43-1.04-.59-1.42-.15-.37-.31-.32-.43-.32h-.36c-.13 0-.34.04-.51.24-.17.19-.67.65-.67 1.59 0 .93.68 1.84.77 1.96.1.12 1.33 2.03 3.21 2.84.45.2.8.32 1.07.4.45.14.86.12 1.19.07.36-.05 1.11-.45 1.27-.88.15-.43.15-.81.1-.88-.04-.08-.16-.12-.35-.21Z"
  />
</svg>
