<svg xmlns="http://www.w3.org/2000/svg" width="24" height="24" viewBox="0 0 24 24">
  <g id="Youtube" transform="translate(-4 -4)">
    <circle id="Ellipse_13" data-name="Ellipse 13" cx="12" cy="12" r="12" transform="translate(4 4)" fill="red"/>
    <path id="Path_154605" data-name="Path 154605" d="M25.58,15.827a1.938,1.938,0,0,1,.5.864,20.746,20.746,0,0,1,.01,7.418,1.938,1.938,0,0,1-1.365,1.365,45.3,45.3,0,0,1-6.013.326,45.3,45.3,0,0,1-6.013-.326,1.938,1.938,0,0,1-1.365-1.365,21.08,21.08,0,0,1-.01-7.408,1.938,1.938,0,0,1,1.365-1.365A45.664,45.664,0,0,1,18.7,15a45.3,45.3,0,0,1,6.013.326A1.938,1.938,0,0,1,25.58,15.827ZM21.165,20.4l-4,2.314V18.086Z" transform="translate(-2.8 -4.4)" fill="#fff" fill-rule="evenodd"/>
  </g>
</svg>
