<svg xmlns="http://www.w3.org/2000/svg" width="22" height="19.78" viewBox="0 0 22 19.78">
  <path id="email-box" d="M17.412,3.317c-.852-.067-1.9-.067-3.239-.067H12.306c-1.337,0-2.388,0-3.239.067A6.373,6.373,0,0,0,6.8,3.841,6.4,6.4,0,0,0,4.087,6.259a5.183,5.183,0,0,0-.44.879,21.552,21.552,0,0,0-.879,4.514l-.023.173c-.236,1.741-.422,3.1-.478,4.2a6.905,6.905,0,0,0,.342,2.887,6.459,6.459,0,0,0,2.8,3.286,6.517,6.517,0,0,0,2.757.742c1.07.093,2.418.093,4.135.093h1.872c1.721,0,3.065,0,4.135-.093a6.517,6.517,0,0,0,2.757-.742,6.459,6.459,0,0,0,2.8-3.286,6.9,6.9,0,0,0,.34-2.891c-.056-1.1-.241-2.457-.478-4.2l-.027-.2a19.019,19.019,0,0,0-.971-4.715,5.029,5.029,0,0,0-.342-.652,6.4,6.4,0,0,0-2.712-2.418,6.373,6.373,0,0,0-2.263-.52ZM7.492,5.383a4.788,4.788,0,0,1,1.7-.375c.781-.062,1.768-.062,3.147-.062h1.8c1.379,0,2.366,0,3.147.062a4.788,4.788,0,0,1,1.7.375A4.732,4.732,0,0,1,20.95,7.1l-.609.622a50.361,50.361,0,0,1-4.352,4.164,4.638,4.638,0,0,1-2.885,1.24,4.638,4.638,0,0,1-2.887-1.24A50.355,50.355,0,0,1,5.869,7.722l-.44-.453q.03-.053.062-.1a4.734,4.734,0,0,1,2-1.783Zm14.1,3.459c.159.755.3,1.752.491,3.17.243,1.79.418,3.077.47,4.093a5.238,5.238,0,0,1-.226,2.182,4.775,4.775,0,0,1-2.069,2.429,4.945,4.945,0,0,1-2.088.53c-.989.087-2.265.088-4.033.088h-1.8c-1.768,0-3.042,0-4.033-.088a4.945,4.945,0,0,1-2.088-.53,4.775,4.775,0,0,1-2.069-2.429,5.237,5.237,0,0,1-.226-2.182c.052-1.015.226-2.308.47-4.093.174-1.278.3-2.215.44-2.943a49.558,49.558,0,0,0,4.374,4.164A6.238,6.238,0,0,0,13.1,14.82a6.238,6.238,0,0,0,3.891-1.587,50.965,50.965,0,0,0,4.48-4.267Z" transform="translate(-2.237 -3.25)" fill-rule="evenodd"/>
</svg>
