<svg xmlns="http://www.w3.org/2000/svg" width="24" height="24" viewBox="0 0 24 24">
  <path id="LinkedIN" d="M-4672,3322a11.92,11.92,0,0,1-4.671-.943,11.949,11.949,0,0,1-3.814-2.572,11.921,11.921,0,0,1-2.572-3.814A11.918,11.918,0,0,1-4684,3310a11.918,11.918,0,0,1,.944-4.671,11.92,11.92,0,0,1,2.572-3.814,11.956,11.956,0,0,1,3.814-2.572A11.923,11.923,0,0,1-4672,3298a11.921,11.921,0,0,1,4.671.943,11.963,11.963,0,0,1,3.814,2.572,11.952,11.952,0,0,1,2.572,3.814A11.917,11.917,0,0,1-4660,3310a11.916,11.916,0,0,1-.942,4.67,11.953,11.953,0,0,1-2.572,3.814,11.962,11.962,0,0,1-3.814,2.572A11.922,11.922,0,0,1-4672,3322Zm2.873-13.369c1.019,0,1.232.923,1.232,1.7v4.338h2.433v-4.643a3.682,3.682,0,0,0-.8-2.545,2.61,2.61,0,0,0-2-.816,2.867,2.867,0,0,0-2.417,1.248h-.048l-.112-1.073h-2.114c.033.686.065,1.52.065,2.5v5.332h2.434v-4.515a1.743,1.743,0,0,1,.1-.609A1.312,1.312,0,0,1-4669.126,3308.63Zm-8.145-1.794v7.828h2.434v-7.828Zm1.215-3.41a1.317,1.317,0,0,0-.957.368,1.188,1.188,0,0,0-.324.865,1.163,1.163,0,0,0,.325.846,1.3,1.3,0,0,0,.941.37,1.225,1.225,0,0,0,1.313-1.216A1.217,1.217,0,0,0-4676.056,3303.426Z" transform="translate(4684 -3298)" fill="#4199f1"/>
</svg>
