<svg xmlns="http://www.w3.org/2000/svg" width="22" height="21.964" viewBox="0 0 22 21.964">
  <path id="phone-calling" d="M120.414,41.944c-.358.092-.537.383-.537.873s.183.665.74.78a8.587,8.587,0,0,1,2.526,1.05,14.934,14.934,0,0,1,5.071,5.383,6.83,6.83,0,0,1,.708,1.963.76.76,0,0,0,1.029.61q.732-.157.595-1.044c-.373-2.336-2.615-5.469-5.444-7.608a11.326,11.326,0,0,0-3.632-1.882,2.543,2.543,0,0,0-1.055-.122m-7.22,2.262a5.142,5.142,0,0,0-3.69,2.577,5.426,5.426,0,0,0-.889,3.772,13.718,13.718,0,0,0,3.907,8.5,14.414,14.414,0,0,0,8.683,4.762,10.4,10.4,0,0,0,2.564,0A5.362,5.362,0,0,0,125.706,63a4.819,4.819,0,0,0,2.571-4.509,3.694,3.694,0,0,0-1.846-2.93,15.276,15.276,0,0,0-1.98-1.033,4.15,4.15,0,0,0-1.465-.186,4.418,4.418,0,0,0-2.608,1.165c-.164.14-.193.148-.519.145a1.865,1.865,0,0,1-1.175-.459,8.054,8.054,0,0,1-1.372-1.372,1.843,1.843,0,0,1-.46-1.175c0-.326.007-.355.148-.519a4.913,4.913,0,0,0,.76-1.123,3.97,3.97,0,0,0,.221-2.963,15.849,15.849,0,0,0-1.033-1.975,3.741,3.741,0,0,0-2.868-1.851,2.619,2.619,0,0,0-.883,0m1.046,1.733c.656.175.977.468,1.491,1.386.676,1.2.742,1.37.739,1.929a2.421,2.421,0,0,1-.669,1.661,2.32,2.32,0,0,0-.629,1.868,4.044,4.044,0,0,0,1.211,2.552,6.316,6.316,0,0,0,2.5,1.842,2.42,2.42,0,0,0,.835.153,2.331,2.331,0,0,0,1.867-.631,2.388,2.388,0,0,1,2.32-.578,14.834,14.834,0,0,1,1.954,1.068,1.987,1.987,0,0,1,.761,1.667,3.076,3.076,0,0,1-1.507,2.5,4.462,4.462,0,0,1-1.5.773,3.808,3.808,0,0,1-1.027.088,11.775,11.775,0,0,1-7.936-3.432,13.273,13.273,0,0,1-4.132-6.773,8.547,8.547,0,0,1-.133-3.131,4.673,4.673,0,0,1,1.309-2.1,2.731,2.731,0,0,1,1.287-.816,3.027,3.027,0,0,1,1.271-.021m6.421-.022a.877.877,0,0,0-.563.78c-.064.421.115.67.623.873a10.417,10.417,0,0,1,4.228,4.273,1.015,1.015,0,0,0,.252.394c.139.122.189.138.437.138a1.043,1.043,0,0,0,.846-.366,1.279,1.279,0,0,0-.134-1.153,10.529,10.529,0,0,0-2.174-2.834c-1.424-1.387-2.93-2.286-3.515-2.1" transform="translate(-108.567 -41.938)" fill-rule="evenodd"/>
</svg>
