<svg id="Whatsapp" xmlns="http://www.w3.org/2000/svg" width="24" height="24" viewBox="0 0 24 24">
  <g id="Color-">
    <path id="Whatsapp-2" data-name="Whatsapp" d="M712,360a11.992,11.992,0,0,0-9.711,19.033l-1.5,4.458,4.612-1.474A12,12,0,1,0,712,360H712Zm-3.35,6.1c-.233-.557-.409-.578-.762-.593-.12-.007-.254-.014-.4-.014a1.741,1.741,0,0,0-1.227.43,3.832,3.832,0,0,0-1.227,2.921,6.859,6.859,0,0,0,1.425,3.619c.176.233,2.447,3.816,5.974,5.277,2.758,1.143,3.576,1.037,4.2.9a3.383,3.383,0,0,0,2.356-1.693,2.98,2.98,0,0,0,.2-1.665c-.085-.148-.318-.233-.67-.409s-2.067-1.023-2.391-1.136a.67.67,0,0,0-.86.261,14.712,14.712,0,0,1-.938,1.242.758.758,0,0,1-.846.134,8.844,8.844,0,0,1-2.814-1.736,10.675,10.675,0,0,1-1.946-2.419c-.2-.353-.021-.557.141-.748.176-.219.346-.374.522-.579a2.1,2.1,0,0,0,.388-.55.716.716,0,0,0-.049-.649C709.641,368.515,708.936,366.794,708.646,366.1Z" transform="translate(-700 -360)" fill="#67c15e" fill-rule="evenodd"/>
  </g>
</svg>
