<svg width="800" height="220" viewBox="0 0 800 220" fill="none" xmlns="http://www.w3.org/2000/svg" role="img" aria-labelledby="mernpixelLogoTitle mernpixelLogoDesc">
  <title id="mernpixelLogoTitle">MERNpixel logo</title>
  <desc id="mernpixelLogoDesc">Penguin icon with the text MERNpixel</desc>
  <defs>
    <linearGradient id="penguinBody" x1="62" y1="22" x2="154" y2="168" gradientUnits="userSpaceOnUse">
      <stop offset="0" stop-color="#458B73" />
      <stop offset="0.55" stop-color="#F26076" />
      <stop offset="1" stop-color="#FF9760" />
    </linearGradient>
    <linearGradient id="wordMark" x1="250" y1="88" x2="700" y2="170" gradientUnits="userSpaceOnUse">
      <stop offset="0" stop-color="#F26076" />
      <stop offset="1" stop-color="#FFD150" />
    </linearGradient>
  </defs>

  <g transform="translate(12 12)">
    <path d="M109 14C72 14 42 44 42 81V104C30 112 22 127 22 146C22 170 39 189 61 193H157C179 189 196 170 196 146C196 127 188 112 176 104V81C176 44 146 14 109 14Z" fill="url(#penguinBody)"/>
    <path d="M109 37C86 37 68 55 68 78V137C68 162 86 182 109 182C132 182 150 162 150 137V78C150 55 132 37 109 37Z" fill="#FFFFFF"/>
    <circle cx="94" cy="79" r="7" fill="#458B73"/>
    <circle cx="124" cy="79" r="7" fill="#458B73"/>
    <path d="M109 88L99 102C97 106 100 111 105 111H113C118 111 121 106 119 102L109 88Z" fill="#FFD150"/>
    <ellipse cx="84" cy="193" rx="20" ry="9" fill="#FFD150"/>
    <ellipse cx="133" cy="193" rx="20" ry="9" fill="#FFD150"/>
  </g>

  <text x="228" y="145" fill="url(#wordMark)" font-family="'Space Grotesk', 'Segoe UI', sans-serif" font-size="94" font-weight="600" letter-spacing="0.5">MERNpixel</text>
</svg>
