<svg width="640" height="180" viewBox="0 0 640 180" fill="none" xmlns="http://www.w3.org/2000/svg">
  <defs>
    <linearGradient id="mp_fire" x1="40" y1="20" x2="200" y2="160" gradientUnits="userSpaceOnUse">
      <stop offset="0" stop-color="#FFC24A"/>
      <stop offset="0.45" stop-color="#E6501B"/>
      <stop offset="1" stop-color="#C3110C"/>
    </linearGradient>
    <linearGradient id="text_fire" x1="230" y1="55" x2="590" y2="138" gradientUnits="userSpaceOnUse">
      <stop offset="0" stop-color="#F4F4F4"/>
      <stop offset="0.5" stop-color="#FFC24A"/>
      <stop offset="1" stop-color="#E6501B"/>
    </linearGradient>
    <filter id="glow" x="0" y="0" width="260" height="180" filterUnits="userSpaceOnUse" color-interpolation-filters="sRGB">
      <feFlood flood-opacity="0" result="BackgroundImageFix"/>
      <feBlend mode="normal" in="SourceGraphic" in2="BackgroundImageFix" result="shape"/>
      <feGaussianBlur stdDeviation="7" result="effect1_foregroundBlur_1_2"/>
    </filter>
  </defs>

  <g filter="url(#glow)">
    <rect x="24" y="24" width="170" height="132" rx="26" stroke="url(#mp_fire)" stroke-width="2"/>
  </g>

  <path d="M48 130V50H66L96 94L126 50H144V130H125V82L100 120H92L67 82V130H48Z" fill="url(#mp_fire)"/>
  <path d="M168 130V50H186V87H204C225 87 240 101 240 119C240 137 225 150 204 150H168V130ZM186 105V132H203C213 132 221 126 221 119C221 112 213 105 203 105H186Z" fill="url(#mp_fire)"/>

  <text x="262" y="106" fill="url(#text_fire)" font-family="Space Grotesk, Arial, sans-serif" font-size="52" font-weight="700" letter-spacing="2">MERNPIXEL</text>
</svg>
